<svg width="17" height="16" viewBox="0 0 17 16" fill="none" xmlns="http://www.w3.org/2000/svg">
<path d="M15.7364 2.52641L8.17912 0.0241452C8.08204 -0.00804838 7.97706 -0.00804838 7.87998 0.0241452L0.322757 2.52641C0.228776 2.55757 0.147042 2.61731 0.0891195 2.69715C0.0311972 2.777 2.01685e-05 2.87292 0 2.97134V9.22699C0 9.35143 0.0497628 9.47076 0.138341 9.55875C0.22692 9.64674 0.347058 9.69617 0.472327 9.69617C0.597596 9.69617 0.717734 9.64674 0.806312 9.55875C0.894891 9.47076 0.944654 9.35143 0.944654 9.22699V3.62193L3.98959 4.63065C3.60561 5.19433 3.34541 5.832 3.22592 6.50217C3.10644 7.17234 3.13034 7.85999 3.29609 8.52037C3.46183 9.18076 3.76569 9.79908 4.1879 10.3351C4.61011 10.8711 5.14121 11.3128 5.74664 11.6315C4.23126 12.1421 2.91268 13.1634 1.96803 14.6029C1.91373 14.7063 1.90008 14.8259 1.92974 14.9387C1.9594 15.0515 2.03024 15.1492 2.12848 15.2129C2.22671 15.2766 2.34531 15.3018 2.46116 15.2834C2.57702 15.265 2.68185 15.2045 2.75524 15.1136C3.97306 13.2611 5.89464 12.1984 8.02956 12.1984C10.1645 12.1984 12.0861 13.2611 13.3039 15.1136C13.3768 15.2064 13.4822 15.2686 13.5992 15.2878C13.7162 15.307 13.8362 15.2818 13.9353 15.2172C14.0345 15.1526 14.1055 15.0534 14.1344 14.9391C14.1632 14.8249 14.1478 14.704 14.0911 14.6006C13.1464 13.1634 11.8294 12.1421 10.3125 11.6292C10.9176 11.3102 11.4483 10.8682 11.8701 10.332C12.2919 9.79582 12.5954 9.17744 12.7607 8.51708C12.9261 7.85672 12.9497 7.16919 12.8299 6.49919C12.7101 5.82919 12.4497 5.19174 12.0656 4.62831L15.7364 3.41627C15.8303 3.38506 15.912 3.3253 15.9698 3.24546C16.0277 3.16562 16.0588 3.06972 16.0588 2.97134C16.0588 2.87296 16.0277 2.77706 15.9698 2.69722C15.912 2.61737 15.8303 2.55762 15.7364 2.52641ZM11.9656 7.3503C11.9659 7.9733 11.8163 8.58736 11.5293 9.1413C11.2422 9.69524 10.8261 10.173 10.3155 10.5349C9.80493 10.8967 9.21469 11.1321 8.59398 11.2214C7.97327 11.3107 7.34005 11.2514 6.74708 11.0484C6.15411 10.8455 5.61856 10.5046 5.18506 10.0544C4.75155 9.60418 4.43263 9.05756 4.25488 8.46009C4.07713 7.86263 4.04569 7.23162 4.16317 6.61964C4.28066 6.00766 4.54367 5.43243 4.9303 4.94187L7.87998 5.91853C7.97706 5.95073 8.08204 5.95073 8.17912 5.91853L11.1288 4.94187C11.6718 5.6287 11.9666 6.47697 11.9656 7.3503ZM8.02956 4.9794L1.96803 2.97134L8.02956 0.963275L14.0911 2.97134L8.02956 4.9794Z" fill="#606060"/>
</svg>
