<svg width="13" height="16" viewBox="0 0 13 16" fill="none" xmlns="http://www.w3.org/2000/svg">
<path d="M1.19971 14.7279C0.858 14.7279 0.572743 14.6019 0.343943 14.3499C0.115143 14.0979 0.000495238 13.7834 0 13.4065V1.32142C0 0.94504 0.114647 0.630845 0.343943 0.378834C0.573238 0.126824 0.858495 0.000545478 1.19971 0H9.20029C9.542 0 9.82726 0.126278 10.0561 0.378834C10.2849 0.631391 10.3995 0.945586 10.4 1.32142V6.65619C10.4 6.77238 10.3646 6.86948 10.2938 6.94748C10.223 7.02548 10.1346 7.06476 10.0286 7.0653C9.92259 7.06585 9.83419 7.02657 9.76337 6.94748C9.69255 6.86838 9.65714 6.77129 9.65714 6.65619V1.32142C9.65714 1.19596 9.6096 1.08059 9.51451 0.975314C9.41943 0.870037 9.31469 0.817671 9.20029 0.818217H5.57143V5.31023C5.57143 5.4395 5.52141 5.53715 5.42137 5.60315C5.32133 5.66915 5.21907 5.66642 5.11457 5.59497L4.08571 4.9093L3.05686 5.59497C2.95236 5.66642 2.8501 5.66915 2.75006 5.60315C2.65002 5.53715 2.6 5.4395 2.6 5.31023V0.818217H1.19971C1.08581 0.818217 0.981067 0.870583 0.885486 0.975314C0.789905 1.08005 0.742362 1.19541 0.742857 1.32142V13.4065C0.742857 13.5319 0.7904 13.6473 0.885486 13.7526C0.980571 13.8579 1.08531 13.9102 1.19971 13.9097H5.17177C5.27726 13.9097 5.36541 13.9487 5.43623 14.0267C5.50705 14.1047 5.5427 14.2021 5.5432 14.3188C5.5437 14.4355 5.50804 14.5329 5.43623 14.6109C5.36442 14.6889 5.27627 14.7279 5.17177 14.7279H1.19971ZM10.0286 15.2941C9.20103 15.2941 8.49878 14.9766 7.92183 14.3417C7.34488 13.7068 7.05665 12.9333 7.05714 12.0212C7.05764 11.1092 7.34587 10.336 7.92183 9.7016C8.49779 9.06721 9.20004 8.74946 10.0286 8.74837C10.8571 8.74728 11.5594 9.06502 12.1353 9.7016C12.7113 10.3382 12.9995 11.1114 13 12.0212C13.0005 12.9311 12.7123 13.7046 12.1353 14.3417C11.5584 14.9788 10.8561 15.2963 10.0286 15.2941ZM9.86143 13.1913L11.0701 12.2585C11.1557 12.1876 11.1986 12.0982 11.1986 11.9901C11.1986 11.8821 11.1557 11.7924 11.0701 11.721L9.86143 10.7898C9.75644 10.7184 9.65095 10.7121 9.54497 10.771C9.43899 10.8299 9.386 10.9256 9.386 11.0582V12.9213C9.386 13.0538 9.43899 13.1496 9.54497 13.2085C9.65095 13.2674 9.75644 13.2622 9.86143 13.1913Z" fill="#606060"/>
</svg>
